# xmcd CD database file
#
# Track frame offsets:
#	150
#	20286
#	46140
#	68508
#	85796
#	100771
#	123421
#	140241
#	156835
#	176654
#	196606
#	215325
#
# Disc length: 3139 seconds
#
# Revision: 0
# Processed by: cddbd v1.5.2PL0 Copyright (c) Steve Scherf et al.
# Submitted via: CDex 1.70beta3
#
DISCID=980c410c
DTITLE=Joscho Stephan - Acoustic Rhythm
DYEAR=2013
DGENRE=Jazz
TTITLE0=Weekend In L.A.
TTITLE1=Last Day
TTITLE2=Caravan
TTITLE3=Bolero
TTITLE4=Road Song
TTITLE5=Rosemarys Baby
TTITLE6=Blackbird
TTITLE7=I Love You Much Too Much
TTITLE8=Acoustic Rhythm
TTITLE9=Send One Your Love
TTITLE10=Chica
TTITLE11=What A Wonderful World
EXTD=YEAR: 2013
EXTT0=
EXTT1=
EXTT2=
EXTT3=
EXTT4=
EXTT5=
EXTT6=
EXTT7=
EXTT8=
EXTT9=
EXTT10=
EXTT11=
PLAYORDER=
